<mxfile host="app.diagrams.net" modified="2023-09-03T23:11:25.892Z" agent="Mozilla/5.0 (Windows NT 10.0; Win64; x64) AppleWebKit/537.36 (KHTML, like Gecko) Chrome/116.0.0.0 Safari/537.36 Edg/116.0.1938.69" etag="8MtAPY4qf5t5C1K4HKMv" version="21.7.2" type="device">
  <diagram id="H7BJlb78vj060Txp-b5c" name="Page-1">
    <mxGraphModel dx="1042" dy="535" grid="1" gridSize="10" guides="1" tooltips="1" connect="1" arrows="1" fold="1" page="1" pageScale="1" pageWidth="827" pageHeight="1169" math="0" shadow="0">
      <root>
        <mxCell id="0" />
        <mxCell id="1" parent="0" />
        <mxCell id="oqTrx5yOk6BzUSDx58vE-3" style="edgeStyle=orthogonalEdgeStyle;rounded=0;orthogonalLoop=1;jettySize=auto;html=1;startArrow=none;" parent="1" source="oqTrx5yOk6BzUSDx58vE-9" target="oqTrx5yOk6BzUSDx58vE-2" edge="1">
          <mxGeometry relative="1" as="geometry" />
        </mxCell>
        <mxCell id="oqTrx5yOk6BzUSDx58vE-13" style="edgeStyle=orthogonalEdgeStyle;rounded=0;orthogonalLoop=1;jettySize=auto;html=1;" parent="1" source="oqTrx5yOk6BzUSDx58vE-1" target="oqTrx5yOk6BzUSDx58vE-12" edge="1">
          <mxGeometry relative="1" as="geometry" />
        </mxCell>
        <mxCell id="oqTrx5yOk6BzUSDx58vE-1" value="news input" style="rounded=0;whiteSpace=wrap;html=1;fillColor=#fff2cc;strokeColor=#d6b656;gradientColor=#ffd966;" parent="1" vertex="1">
          <mxGeometry x="190" y="140" width="100" height="40" as="geometry" />
        </mxCell>
        <mxCell id="oqTrx5yOk6BzUSDx58vE-6" style="edgeStyle=orthogonalEdgeStyle;rounded=0;orthogonalLoop=1;jettySize=auto;html=1;" parent="1" source="oqTrx5yOk6BzUSDx58vE-2" target="oqTrx5yOk6BzUSDx58vE-5" edge="1">
          <mxGeometry relative="1" as="geometry" />
        </mxCell>
        <mxCell id="oqTrx5yOk6BzUSDx58vE-8" style="edgeStyle=orthogonalEdgeStyle;rounded=0;orthogonalLoop=1;jettySize=auto;html=1;" parent="1" source="oqTrx5yOk6BzUSDx58vE-2" target="oqTrx5yOk6BzUSDx58vE-7" edge="1">
          <mxGeometry relative="1" as="geometry" />
        </mxCell>
        <mxCell id="oqTrx5yOk6BzUSDx58vE-11" style="edgeStyle=orthogonalEdgeStyle;rounded=0;orthogonalLoop=1;jettySize=auto;html=1;entryX=0.5;entryY=1;entryDx=0;entryDy=0;" parent="1" source="oqTrx5yOk6BzUSDx58vE-2" target="oqTrx5yOk6BzUSDx58vE-4" edge="1">
          <mxGeometry relative="1" as="geometry" />
        </mxCell>
        <mxCell id="oqTrx5yOk6BzUSDx58vE-21" style="edgeStyle=orthogonalEdgeStyle;rounded=0;orthogonalLoop=1;jettySize=auto;html=1;exitX=0.75;exitY=1;exitDx=0;exitDy=0;" parent="1" source="oqTrx5yOk6BzUSDx58vE-2" target="oqTrx5yOk6BzUSDx58vE-20" edge="1">
          <mxGeometry relative="1" as="geometry">
            <Array as="points">
              <mxPoint x="265" y="380" />
              <mxPoint x="370" y="380" />
            </Array>
          </mxGeometry>
        </mxCell>
        <mxCell id="oqTrx5yOk6BzUSDx58vE-2" value="scrapers" style="rounded=0;whiteSpace=wrap;html=1;fillColor=#d5e8d4;strokeColor=#82b366;" parent="1" vertex="1">
          <mxGeometry x="190" y="320" width="100" height="40" as="geometry" />
        </mxCell>
        <mxCell id="oqTrx5yOk6BzUSDx58vE-5" value="bbc scraper" style="rounded=0;whiteSpace=wrap;html=1;fillColor=#d5e8d4;strokeColor=#82b366;" parent="1" vertex="1">
          <mxGeometry x="60" y="430" width="100" height="40" as="geometry" />
        </mxCell>
        <mxCell id="oqTrx5yOk6BzUSDx58vE-7" value="cnn scraper" style="rounded=0;whiteSpace=wrap;html=1;fillColor=#d5e8d4;strokeColor=#82b366;" parent="1" vertex="1">
          <mxGeometry x="190" y="430" width="100" height="40" as="geometry" />
        </mxCell>
        <mxCell id="oqTrx5yOk6BzUSDx58vE-9" value="llm&lt;br&gt;keyword extraction" style="rounded=1;whiteSpace=wrap;html=1;fillColor=#e6d0de;strokeColor=#996185;gradientColor=#d5739d;glass=1;" parent="1" vertex="1">
          <mxGeometry x="180" y="240" width="120" height="50" as="geometry" />
        </mxCell>
        <mxCell id="oqTrx5yOk6BzUSDx58vE-10" value="" style="edgeStyle=orthogonalEdgeStyle;rounded=0;orthogonalLoop=1;jettySize=auto;html=1;endArrow=none;" parent="1" source="oqTrx5yOk6BzUSDx58vE-1" target="oqTrx5yOk6BzUSDx58vE-9" edge="1">
          <mxGeometry relative="1" as="geometry">
            <mxPoint x="200" y="90" as="sourcePoint" />
            <mxPoint x="240" y="320" as="targetPoint" />
          </mxGeometry>
        </mxCell>
        <mxCell id="oqTrx5yOk6BzUSDx58vE-14" style="edgeStyle=orthogonalEdgeStyle;rounded=0;orthogonalLoop=1;jettySize=auto;html=1;entryX=0.5;entryY=1;entryDx=0;entryDy=0;" parent="1" source="oqTrx5yOk6BzUSDx58vE-4" target="oqTrx5yOk6BzUSDx58vE-12" edge="1">
          <mxGeometry relative="1" as="geometry" />
        </mxCell>
        <mxCell id="oqTrx5yOk6BzUSDx58vE-4" value="retrieval model" style="rounded=1;whiteSpace=wrap;html=1;fillColor=#dae8fc;strokeColor=#6c8ebf;" parent="1" vertex="1">
          <mxGeometry x="350" y="235" width="150" height="60" as="geometry" />
        </mxCell>
        <mxCell id="oqTrx5yOk6BzUSDx58vE-16" style="edgeStyle=orthogonalEdgeStyle;rounded=0;orthogonalLoop=1;jettySize=auto;html=1;" parent="1" source="oqTrx5yOk6BzUSDx58vE-12" target="oqTrx5yOk6BzUSDx58vE-15" edge="1">
          <mxGeometry relative="1" as="geometry" />
        </mxCell>
        <mxCell id="oqTrx5yOk6BzUSDx58vE-12" value="llm&lt;br&gt;generate formated corpus" style="rounded=1;whiteSpace=wrap;html=1;fillColor=#e6d0de;strokeColor=#996185;gradientColor=#d5739d;glass=1;" parent="1" vertex="1">
          <mxGeometry x="364" y="100" width="146" height="60" as="geometry" />
        </mxCell>
        <mxCell id="oqTrx5yOk6BzUSDx58vE-18" style="edgeStyle=orthogonalEdgeStyle;rounded=0;orthogonalLoop=1;jettySize=auto;html=1;" parent="1" source="oqTrx5yOk6BzUSDx58vE-15" edge="1">
          <mxGeometry relative="1" as="geometry">
            <mxPoint x="663" y="260" as="targetPoint" />
          </mxGeometry>
        </mxCell>
        <mxCell id="oqTrx5yOk6BzUSDx58vE-15" value="llm&lt;br&gt;comparison" style="rounded=1;whiteSpace=wrap;html=1;fillColor=#e6d0de;strokeColor=#996185;gradientColor=#d5739d;glass=1;" parent="1" vertex="1">
          <mxGeometry x="560" y="100" width="146" height="60" as="geometry" />
        </mxCell>
        <mxCell id="oqTrx5yOk6BzUSDx58vE-19" value="get output" style="ellipse;whiteSpace=wrap;html=1;fillColor=#fff2cc;strokeColor=#d6b656;gradientColor=#ffd966;" parent="1" vertex="1">
          <mxGeometry x="610" y="260" width="120" height="80" as="geometry" />
        </mxCell>
        <mxCell id="oqTrx5yOk6BzUSDx58vE-20" value="other scrapers" style="rounded=0;whiteSpace=wrap;html=1;fillColor=#d5e8d4;strokeColor=#82b366;" parent="1" vertex="1">
          <mxGeometry x="320" y="430" width="100" height="40" as="geometry" />
        </mxCell>
      </root>
    </mxGraphModel>
  </diagram>
</mxfile>
